# xmcd
#
# Track frame offsets:
#	150
#	13595
#	23600
#	33785
#	44767
#	51757
#	62535
#	71505
#	81497
#	92595
#	105595
#	114585
#
# Disc length: 1683 seconds
#
# Revision: 1
# Processed by: cddbd v1.5.2PL0 Copyright (c) Steve Scherf et al.
# Submitted via: EasyCDDAExtractor 7.0.3.1
#
DISCID=9306910c
DTITLE=Cari Lee and The Saddle-ites - Red Barn Baby
DYEAR=2001
DGENRE=Country
TTITLE0='Til I Met You
TTITLE1=Red Barn Baby
TTITLE2=Stop Whistlin' Wolf
TTITLE3=Kiss Me Tonight 
TTITLE4=How Do You Like That
TTITLE5=Don't Ever Leave Me
TTITLE6=Stop That Tom Cattin' 
TTITLE7=Only You
TTITLE8=You're Gonna Be Sorry Some Of These Days
TTITLE9=Hadacol Rhythm
TTITLE10=Outbound Train
TTITLE11=Green Tree Boogie
EXTD=
EXTT0=
EXTT1=
EXTT2=
EXTT3=
EXTT4=
EXTT5=
EXTT6=
EXTT7=
EXTT8=
EXTT9=
EXTT10=
EXTT11=
PLAYORDER=
